<svg xmlns="http://www.w3.org/2000/svg" xmlns:xlink="http://www.w3.org/1999/xlink" width="288.485" height="288.485" viewBox="0 0 288.485 288.485">
  <defs>
    <filter id="Ellipse_6" x="0" y="0" width="288.485" height="288.485" filterUnits="userSpaceOnUse">
      <feOffset input="SourceAlpha"/>
      <feGaussianBlur stdDeviation="7.5" result="blur"/>
      <feFlood flood-color="#3263cc" flood-opacity="0.2"/>
      <feComposite operator="in" in2="blur"/>
      <feComposite in="SourceGraphic"/>
    </filter>
    <filter id="Ellipse_6-2" x="0" y="0" width="288.485" height="288.485" filterUnits="userSpaceOnUse">
      <feOffset dy="3" input="SourceAlpha"/>
      <feGaussianBlur stdDeviation="3" result="blur-2"/>
      <feFlood flood-opacity="0" result="color"/>
      <feComposite operator="out" in="SourceGraphic" in2="blur-2"/>
      <feComposite operator="in" in="color"/>
      <feComposite operator="in" in2="SourceGraphic"/>
    </filter>
  </defs>
  <g id="Group_29" data-name="Group 29" transform="translate(-423.238 1886.243)">
    <g id="Group_26" data-name="Group 26">
      <g data-type="innerShadowGroup">
        <g transform="matrix(1, 0, 0, 1, 423.24, -1886.24)" filter="url(#Ellipse_6)">
          <circle id="Ellipse_6-3" data-name="Ellipse 6" cx="121.743" cy="121.743" r="121.743" transform="translate(22.5 22.5)" fill="#013220"/>
        </g>
        <g transform="matrix(1, 0, 0, 1, 423.24, -1886.24)" filter="url(#Ellipse_6-2)">
          <circle id="Ellipse_6-4" data-name="Ellipse 6" cx="121.743" cy="121.743" r="121.743" transform="translate(22.5 22.5)" fill="#fff"/>
        </g>
      </g>
    </g>
  </g>
  <g id="Group_2" data-name="Group 2" transform="translate(-967.63 -129.239)">
    <path id="Path_15" data-name="Path 15" d="M6.325,0H32.14s-.37,1.189-1.777,5.556a25.694,25.694,0,0,0-1.406,7.093H6.325A6.325,6.325,0,1,1,6.325,0Z" transform="translate(1025.85 245.976)" fill="#fff"/>
    <path id="Path_20" data-name="Path 20" d="M6.325,0H32.14a19.106,19.106,0,0,0-2.8,6.325c-.638,3.263-1.11,6.628-1.11,6.628l-21.9-.3A6.325,6.325,0,1,1,6.325,0Z" transform="translate(1199.518 300.987) rotate(180)" fill="#fff"/>
    <path id="Path_16" data-name="Path 16" d="M6.323-.512,27.887-.725S27.7,2.03,27.7,4.957s0,7.181,0,7.181H6.323a6.325,6.325,0,1,1,0-12.65Z" transform="translate(1025.852 267.775)" fill="#fff"/>
    <path id="Path_18" data-name="Path 18" d="M6.325.213,27.889,0s.006,3.611,0,6.538-.19,6.325-.19,6.325H6.325a6.325,6.325,0,1,1,0-12.65Z" transform="translate(1199.518 280.02) rotate(180)" fill="#fff"/>
    <path id="Path_17" data-name="Path 17" d="M6.325,0,27.773.351a52.909,52.909,0,0,0,.518,5.478c.592,5.308,1.924,6.514,1.924,6.514l-23.89.307A6.325,6.325,0,1,1,6.325,0Z" transform="translate(1025.85 288.337)" fill="#fff"/>
    <path id="Path_19" data-name="Path 19" d="M6.325,0,27.773.351A31.794,31.794,0,0,0,28.861,7.4a13.535,13.535,0,0,0,2.986,5.253H6.325A6.325,6.325,0,1,1,6.325,0Z" transform="translate(1199.518 258.626) rotate(180)" fill="#fff"/>
    <g id="Path_10" data-name="Path 10" transform="translate(1057.99 217)">
      <path id="Path_49" data-name="Path 49" d="M53.543,0C63.35,0,71.23,5.4,79.219,10.223c5.8,3.5,12.9,6.15,17.375,11.007,4.031,4.377,9.155,9.862,10.918,16.216,1.626,5.861,1.207,12.5,1.207,19.006,0,6.145.535,11.984-1.207,17.548-1.892,6.044-3.6,12.33-7.5,17.315-5.283,6.741-12.654,9.714-20.789,13.467-8.05,3.714-16.88,8.18-25.675,8.18-8.405,0-16.448-4.581-23.564-8.18-7.989-4.041-18.3-8.475-23.725-15.391C2.127,84.134.185,77.609-.425,70.427c-.374-4.409,0-13.574,0-18.415,0-5.4.074-11.487,1.427-16.216A47.8,47.8,0,0,1,9.683,19.252c4.259-5.317,10.435-7.687,16.793-10.664C34.866,4.66,43.275,0,53.543,0Z" transform="translate(0.592)" fill="none"/>
      <path id="Path_50" data-name="Path 50" d="M53.543,7.461c-7.394,0-13.977,3.147-20.946,6.479-.988.472-1.973.943-2.958,1.4L27.3,16.424c-4.912,2.251-9.154,4.195-11.794,7.491A40.344,40.344,0,0,0,8.175,37.849c-1.14,3.984-1.14,10.11-1.14,14.164,0,1.529-.036,3.478-.075,5.576-.079,4.251-.178,9.541.048,12.208.543,6.394,2.216,11.3,5.114,14.989,3.66,4.663,11.206,8.385,17.863,11.669,1.151.568,2.276,1.123,3.36,1.671L35.458,99.2c6.041,3.1,12.288,6.3,18.085,6.3,6.435,0,13.619-3.342,20.565-6.574l1.984-.921,2.046-.938c6.858-3.133,12.274-5.608,16-10.357,2.7-3.446,4.173-8.21,5.732-13.254l.524-1.688c1.047-3.345.982-7.21.906-11.686-.02-1.2-.04-2.411-.04-3.633,0-1.136.012-2.275.025-3.414.055-5.016.107-9.753-.96-13.6-1.251-4.508-5.551-9.176-9.006-12.927l-.211-.229c-2.255-2.449-5.966-4.395-9.894-6.454-1.927-1.01-3.92-2.055-5.849-3.22l-2.17-1.32C66.6,11.264,60.376,7.461,53.543,7.461m0-7.461c9.806,0,17.686,5.4,25.675,10.223,5.8,3.5,12.9,6.151,17.375,11.007,4.031,4.377,9.155,9.862,10.918,16.216,1.626,5.861,1.207,12.5,1.207,19.006,0,6.145.535,11.984-1.207,17.548-1.892,6.044-3.6,12.33-7.5,17.315-5.283,6.741-12.654,9.714-20.789,13.467-8.05,3.714-16.88,8.18-25.675,8.18-8.405,0-16.448-4.581-23.564-8.18-7.989-4.041-18.3-8.475-23.725-15.391C2.126,84.134.184,77.609-.426,70.428c-.375-4.409,0-13.574,0-18.415,0-5.4.075-11.487,1.427-16.216A47.808,47.808,0,0,1,9.683,19.251c4.259-5.317,10.435-7.687,16.793-10.664C34.865,4.66,43.275,0,53.543,0Z" transform="translate(0.592)" fill="#fff"/>
    </g>
    <g id="Group_1" data-name="Group 1" transform="translate(1070.293 231.568)" style="mix-blend-mode: lighten;isolation: isolate">
      <g id="Group_3" data-name="Group 3" transform="translate(10.769 0)">
        <circle id="Ellipse_1" data-name="Ellipse 1" cx="32.141" cy="32.141" r="32.141" transform="translate(0 9.55)" fill="#fff"/>
        <text id="E" transform="translate(22.366 62.454) rotate(-15.009)" font-size="53" font-family="SegoeUI-Bold, Segoe UI" font-weight="700"><tspan x="0" y="0">E</tspan></text>
        <rect id="Rectangle_1" data-name="Rectangle 1" width="5.105" height="8.163" transform="translate(39.026 55.757) rotate(-15.009)"/>
        <rect id="Rectangle_4" data-name="Rectangle 4" width="5.105" height="8.163" transform="translate(28.292 17.404) rotate(-15.009)"/>
        <rect id="Rectangle_2" data-name="Rectangle 2" width="5.105" height="8.163" transform="translate(29.994 58.244) rotate(-15.009)"/>
        <rect id="Rectangle_3" data-name="Rectangle 3" width="5.105" height="8.163" transform="translate(19.129 20.153) rotate(-15.009)"/>
      </g>
      <path id="Path_2" data-name="Path 2" d="M2.308-1.66c.522-.189,2.8-.7,7.834-.7s9.271.5,9.762.764a2.48,2.48,0,0,1,.97,2.134,1.813,1.813,0,0,1-1.835,1.883c-1.22.139-3.858-.734-8.9-.734s-7.677,1.106-8.748.8A1.855,1.855,0,0,1,0,.409C0-.628,1.786-1.471,2.308-1.66Z" transform="translate(32.178 3.488)" fill="#fff"/>
      <path id="Path_9" data-name="Path 9" d="M2.308.7C2.83.51,5.1,0,10.142,0S19.413.5,19.9.764a2.48,2.48,0,0,1,.97,2.134,1.813,1.813,0,0,1-1.835,1.883c-1.22.139-3.858-.734-8.9-.734s-7.677,1.106-8.748.8A1.855,1.855,0,0,1,0,2.768C0,1.731,1.786.888,2.308.7Z" transform="translate(54.608 82.585) rotate(178)" fill="#fff"/>
      <path id="Path_5" data-name="Path 5" d="M2.308.7C2.83.51,5.1,0,10.142,0S19.413.5,19.9.764a2.48,2.48,0,0,1,.97,2.134,1.813,1.813,0,0,1-1.835,1.883c-1.22.139-3.858-.734-8.9-.734s-7.677,1.106-8.748.8A1.855,1.855,0,0,1,0,2.768C0,1.731,1.786.888,2.308.7Z" transform="matrix(0.035, 0.999, -0.999, 0.035, 84.347, 30.048)" fill="#fff"/>
      <path id="Path_7" data-name="Path 7" d="M2.308.7C2.83.51,5.1,0,10.142,0S19.413.5,19.9.764a2.48,2.48,0,0,1,.97,2.134,1.813,1.813,0,0,1-1.835,1.883c-1.22.139-3.858-.734-8.9-.734s-7.677,1.106-8.748.8A1.855,1.855,0,0,1,0,2.768C0,1.731,1.786.888,2.308.7Z" transform="translate(1.461 55.504) rotate(-94.012)" fill="#fff"/>
      <path id="Path_3" data-name="Path 3" d="M2.308.7C2.83.51,5.1,0,10.142,0S19.413.5,19.9.764a2.48,2.48,0,0,1,.97,2.134,1.813,1.813,0,0,1-1.835,1.883c-1.22.139-3.858-.734-8.9-.734s-7.677,1.106-8.748.8A1.855,1.855,0,0,1,0,2.768C0,1.731,1.786.888,2.308.7Z" transform="translate(64.142 6.031) rotate(45)" fill="#fff"/>
      <path id="Path_8" data-name="Path 8" d="M2.308.7C2.83.51,5.1,0,10.142,0S19.413.5,19.9.764a2.48,2.48,0,0,1,.97,2.134,1.813,1.813,0,0,1-1.835,1.883c-1.22.139-3.858-.734-8.9-.734s-7.677,1.106-8.748.8A1.855,1.855,0,0,1,0,2.768C0,1.731,1.786.888,2.308.7Z" transform="matrix(-0.731, -0.682, 0.682, -0.731, 22.492, 78.801)" fill="#fff"/>
      <path id="Path_4" data-name="Path 4" d="M2.308.7C2.83.51,5.1,0,10.142,0S19.413.5,19.9.764a2.48,2.48,0,0,1,.97,2.134,1.813,1.813,0,0,1-1.835,1.883c-1.22.139-3.858-.734-8.9-.734s-7.677,1.106-8.748.8A1.855,1.855,0,0,1,0,2.768C0,1.731,1.786.888,2.308.7Z" transform="translate(80.564 62.164) rotate(133)" fill="#fff"/>
      <path id="Path_6" data-name="Path 6" d="M2.308.7C2.83.51,5.1,0,10.142,0S19.413.5,19.9.764a2.48,2.48,0,0,1,.97,2.134,1.813,1.813,0,0,1-1.835,1.883c-1.22.139-3.858-.734-8.9-.734s-7.677,1.106-8.748.8A1.855,1.855,0,0,1,0,2.768C0,1.731,1.786.888,2.308.7Z" transform="matrix(0.656, -0.755, 0.755, 0.656, 4.121, 23.275)" fill="#fff"/>
    </g>
    <path id="Path_13" data-name="Path 13" d="M1.015,21.471A71.389,71.389,0,0,1,0,9.935,44.353,44.353,0,0,1,1.352,0l15.24,10.862Z" transform="translate(1033.463 284.217) rotate(180)" fill="#fff"/>
    <path id="Path_14" data-name="Path 14" d="M569.183,323.43a71.38,71.38,0,0,1-1.01-11.535,44.351,44.351,0,0,1,1.347-9.935l15.24,10.862Z" transform="translate(622.114 -39.213)" fill="#fff"/>
  </g>
</svg>