<svg id="Group_5" data-name="Group 5" xmlns="http://www.w3.org/2000/svg" width="385.728" height="385.728" viewBox="0 0 385.728 385.728">
  <path id="Path_31" data-name="Path 31" d="M0,0H385.728V385.728H0Z" fill="none" stroke="#000" stroke-width="0"/>
  <path id="Path_32" data-name="Path 32" d="M155.263,32.282,132.44,9.46,64.295,77.766,30.222,43.533,7.4,66.355,64.295,123.25Z" transform="translate(111.533 142.581)" stroke="#000" stroke-width="0"/>
  <path id="Path_33" data-name="Path 33" d="M260.152,4H35.144A32.144,32.144,0,0,0,3,36.144V229.008a32.144,32.144,0,0,0,32.144,32.144H260.152A32.239,32.239,0,0,0,292.3,229.008V36.144A32.144,32.144,0,0,0,260.152,4Zm0,225.008H35.144V68.288H260.152Z" transform="translate(45.216 60.288)" stroke="#000" stroke-width="0"/>
</svg>
