<svg xmlns="http://www.w3.org/2000/svg" xmlns:xlink="http://www.w3.org/1999/xlink" width="609.358" height="609.358" viewBox="0 0 609.358 609.358">
  <defs>
    <filter id="Ellipse_6" x="0" y="0" width="609.358" height="609.358" filterUnits="userSpaceOnUse">
      <feOffset input="SourceAlpha"/>
      <feGaussianBlur stdDeviation="7.5" result="blur"/>
      <feFlood flood-color="#3263cc" flood-opacity="0.2"/>
      <feComposite operator="in" in2="blur"/>
      <feComposite in="SourceGraphic"/>
    </filter>
    <filter id="Ellipse_6-2" x="0" y="0" width="609.358" height="609.358" filterUnits="userSpaceOnUse">
      <feOffset dy="3" input="SourceAlpha"/>
      <feGaussianBlur stdDeviation="3" result="blur-2"/>
      <feFlood flood-opacity="0" result="color"/>
      <feComposite operator="out" in="SourceGraphic" in2="blur-2"/>
      <feComposite operator="in" in="color"/>
      <feComposite operator="in" in2="SourceGraphic"/>
    </filter>
  </defs>
  <g id="Group_25" data-name="Group 25" transform="translate(-466.82 3478.679)">
    <g id="Group_29" data-name="Group 29" transform="translate(489.32 -3456.179)">
      <g id="Group_26" data-name="Group 26" transform="translate(0 0)">
        <g data-type="innerShadowGroup">
          <g transform="matrix(1, 0, 0, 1, -22.5, -22.5)" filter="url(#Ellipse_6)">
            <circle id="Ellipse_6-3" data-name="Ellipse 6" cx="282.179" cy="282.179" r="282.179" transform="translate(22.5 22.5)" fill="#f7931a"/>
          </g>
          <g transform="matrix(1, 0, 0, 1, -22.5, -22.5)" filter="url(#Ellipse_6-2)">
            <circle id="Ellipse_6-4" data-name="Ellipse 6" cx="282.179" cy="282.179" r="282.179" transform="translate(22.5 22.5)" fill="#fff"/>
          </g>
        </g>
      </g>
    </g>
    <g id="Group_2" data-name="Group 2" transform="translate(551.302 -3304.915)">
      <path id="Path_15" data-name="Path 15" d="M14.659,0H74.495s-.858,2.756-4.118,12.878-3.26,16.441-3.26,16.441H14.659a14.66,14.66,0,0,1,0-29.32Z" transform="translate(20.812 67.162)" fill="#fff"/>
      <path id="Path_20" data-name="Path 20" d="M14.66,0H74.5S69.478,7.1,68,14.66s-2.574,15.363-2.574,15.363l-50.765-.7A14.66,14.66,0,0,1,14.66,0Z" transform="translate(423.345 194.668) rotate(180)" fill="#fff"/>
      <path id="Path_16" data-name="Path 16" d="M14.658-.232,64.64-.725s-.427,6.386-.44,13.169,0,16.644,0,16.644H14.658a14.66,14.66,0,1,1,0-29.321Z" transform="translate(20.812 116.733)" fill="#fff"/>
      <path id="Path_18" data-name="Path 18" d="M14.66.494,64.641,0s.013,8.37,0,15.154-.44,14.66-.44,14.66H14.66a14.66,14.66,0,0,1,0-29.319Z" transform="translate(423.345 146.069) rotate(180)" fill="#fff"/>
      <path id="Path_17" data-name="Path 17" d="M14.66,0,64.373.814s-.172.395,1.2,12.7,4.46,15.1,4.46,15.1l-55.374.711A14.66,14.66,0,0,1,14.66,0Z" transform="translate(20.811 165.348)" fill="#fff"/>
      <path id="Path_19" data-name="Path 19" d="M14.66,0,64.373.814A73.7,73.7,0,0,0,66.9,17.143a31.369,31.369,0,0,0,6.92,12.176H14.66A14.66,14.66,0,1,1,14.66,0Z" transform="translate(423.345 96.482) rotate(180)" fill="#fff"/>
      <g id="Path_10" data-name="Path 10" transform="translate(95.306)">
        <path id="Path_49" data-name="Path 49" d="M124.883,0c22.73,0,40.995,12.517,59.511,23.7C197.827,31.8,214.3,37.951,224.667,49.209c9.343,10.146,21.22,22.859,25.306,37.586,3.769,13.587,2.8,28.963,2.8,44.053,0,14.244,1.24,27.778-2.8,40.674-4.385,14.008-8.337,28.578-17.393,40.134-12.246,15.625-29.329,22.517-48.187,31.215-18.66,8.608-39.125,18.96-59.511,18.96-19.482,0-38.123-10.617-54.617-18.961-18.516-9.366-42.4-19.643-54.99-35.675C5.709,195.009,1.208,179.885-.205,163.239c-.868-10.219,0-31.462,0-42.682,0-12.509.173-26.624,3.307-37.586A110.8,110.8,0,0,1,23.223,44.622C33.093,32.3,47.409,26.8,62.144,19.906,81.593,10.8,101.085,0,124.883,0Z" transform="translate(0.592)" fill="none"/>
        <path id="Path_50" data-name="Path 50" d="M124.883,17.294c-17.137,0-32.4,7.3-48.55,15.018-2.29,1.1-4.573,2.186-6.856,3.255l-5.421,2.5C52.67,43.286,42.838,47.791,36.719,55.432a93.5,93.5,0,0,0-16.993,32.3c-2.641,9.235-2.641,23.434-2.641,32.83,0,3.543-.083,8.061-.174,12.923-.184,9.853-.413,22.114.112,28.295,1.259,14.819,5.136,26.184,11.855,34.741,8.484,10.807,25.974,19.435,41.4,27.047,2.667,1.316,5.276,2.6,7.789,3.874l4.9,2.5c14,7.178,28.483,14.6,41.916,14.6,14.916,0,31.566-7.746,47.667-15.237l4.6-2.134,4.743-2.174c15.9-7.262,28.449-13,37.076-24.005,6.26-7.988,9.673-19.03,13.287-30.721l1.214-3.912c2.428-7.753,2.276-16.712,2.1-27.085-.047-2.78-.094-5.587-.094-8.422,0-2.633.028-5.273.057-7.913.127-11.624.247-22.606-2.225-31.516-2.9-10.449-12.865-21.269-20.874-29.963l-.49-.532c-5.227-5.676-13.828-10.186-22.933-14.96-4.465-2.342-9.084-4.763-13.556-7.462l-5.029-3.06c-15.276-9.332-29.706-18.146-45.545-18.146m0-17.294c22.731,0,41,12.517,59.512,23.7,13.433,8.11,29.907,14.256,40.273,25.514,9.343,10.146,21.22,22.859,25.306,37.586,3.769,13.587,2.8,28.963,2.8,44.053,0,14.244,1.24,27.778-2.8,40.674-4.385,14.008-8.337,28.578-17.393,40.134-12.246,15.627-29.329,22.517-48.187,31.215-18.66,8.608-39.125,18.961-59.511,18.961-19.482,0-38.123-10.617-54.617-18.961C51.749,233.5,27.861,223.226,15.275,207.2,5.708,195.009,1.207,179.885-.206,163.24c-.868-10.22,0-31.463,0-42.682,0-12.509.173-26.624,3.308-37.586a110.81,110.81,0,0,1,20.121-38.35C33.094,32.3,47.409,26.8,62.144,19.9,81.592,10.8,101.084,0,124.883,0Z" transform="translate(0.592)" fill="#fff"/>
      </g>
      <g id="Group_1" data-name="Group 1" transform="translate(123.826 34.267)">
        <g id="Group_3" data-name="Group 3" transform="translate(24.959 0)">
          <circle id="Ellipse_1" data-name="Ellipse 1" cx="74.496" cy="74.496" r="74.496" transform="translate(0 21.632)" fill="#fff"/>
          <text id="E" transform="translate(51.035 141.246) rotate(-15.009)" font-size="120" font-family="SegoeUI-Bold, Segoe UI" font-weight="700"><tspan x="0" y="0">E</tspan></text>
          <rect id="Rectangle_1" data-name="Rectangle 1" width="11.832" height="18.92" transform="translate(90.455 128.733) rotate(-15.009)"/>
          <rect id="Rectangle_4" data-name="Rectangle 4" width="11.832" height="18.92" transform="translate(65.576 39.838) rotate(-15.009)"/>
          <rect id="Rectangle_2" data-name="Rectangle 2" width="11.832" height="18.92" transform="translate(69.521 134.497) rotate(-15.009)"/>
          <rect id="Rectangle_3" data-name="Rectangle 3" width="11.832" height="18.92" transform="translate(44.339 46.209) rotate(-15.009)"/>
        </g>
        <path id="Path_2" data-name="Path 2" d="M5.35-.739c1.211-.438,6.479-1.62,18.158-1.62S45-1.2,46.135-.588s2.247,2.543,2.247,4.949S46.958,8.4,44.128,8.726s-8.943-1.7-20.621-1.7S5.713,9.586,3.233,8.879,0,6.461,0,4.057,4.14-.3,5.35-.739Z" transform="translate(74.581 4.473)" fill="#fff"/>
        <path id="Path_9" data-name="Path 9" d="M5.35,1.62C6.561,1.183,11.829,0,23.508,0S44.995,1.155,46.135,1.771s2.249,2.542,2.249,4.947-1.424,4.041-4.254,4.365-8.943-1.7-20.621-1.7S5.713,11.945,3.233,11.239,0,8.82,0,6.416,4.14,2.058,5.35,1.62Z" transform="translate(126.571 190.915) rotate(178)" fill="#fff"/>
        <path id="Path_5" data-name="Path 5" d="M5.35,1.62C6.561,1.183,11.829,0,23.508,0S44.995,1.155,46.135,1.771s2.249,2.542,2.249,4.947-1.424,4.041-4.254,4.365-8.943-1.7-20.621-1.7S5.713,11.945,3.233,11.239,0,8.82,0,6.416,4.14,2.058,5.35,1.62Z" transform="matrix(0.035, 0.999, -0.999, 0.035, 195.501, 69.144)" fill="#fff"/>
        <path id="Path_7" data-name="Path 7" d="M5.35,1.62C6.561,1.183,11.829,0,23.508,0S44.995,1.155,46.135,1.771s2.249,2.542,2.249,4.947-1.424,4.041-4.254,4.365-8.943-1.7-20.621-1.7S5.713,11.945,3.233,11.239,0,8.82,0,6.416,4.14,2.058,5.35,1.62Z" transform="translate(3.385 128.146) rotate(-94.012)" fill="#fff"/>
        <path id="Path_3" data-name="Path 3" d="M5.35,1.62C6.561,1.183,11.829,0,23.508,0S44.995,1.155,46.135,1.771s2.249,2.542,2.249,4.947-1.424,4.041-4.254,4.365-8.943-1.7-20.621-1.7S5.713,11.945,3.233,11.239,0,8.82,0,6.416,4.14,2.058,5.35,1.62Z" transform="translate(148.669 13.475) rotate(45)" fill="#fff"/>
        <path id="Path_8" data-name="Path 8" d="M5.35,1.62C6.561,1.183,11.829,0,23.508,0S44.995,1.155,46.135,1.771s2.249,2.542,2.249,4.947-1.424,4.041-4.254,4.365-8.943-1.7-20.621-1.7S5.713,11.945,3.233,11.239,0,8.82,0,6.416,4.14,2.058,5.35,1.62Z" transform="matrix(-0.731, -0.682, 0.682, -0.731, 52.132, 182.146)" fill="#fff"/>
        <path id="Path_4" data-name="Path 4" d="M5.35,1.62C6.561,1.183,11.829,0,23.508,0S44.995,1.155,46.135,1.771s2.249,2.542,2.249,4.947-1.424,4.041-4.254,4.365-8.943-1.7-20.621-1.7S5.713,11.945,3.233,11.239,0,8.82,0,6.416,4.14,2.058,5.35,1.62Z" transform="translate(186.733 143.584) rotate(133)" fill="#fff"/>
        <path id="Path_6" data-name="Path 6" d="M5.35,1.62C6.561,1.183,11.829,0,23.508,0S44.995,1.155,46.135,1.771s2.249,2.542,2.249,4.947-1.424,4.041-4.254,4.365-8.943-1.7-20.621-1.7S5.713,11.945,3.233,11.239,0,8.82,0,6.416,4.14,2.058,5.35,1.62Z" transform="matrix(0.656, -0.755, 0.755, 0.656, 9.551, 53.446)" fill="#fff"/>
      </g>
      <path id="Path_13" data-name="Path 13" d="M2.352,49.768S-.184,35.471.011,23.028A102.8,102.8,0,0,1,3.133,0L38.458,25.176Z" transform="translate(38.458 155.798) rotate(180)" fill="#fff"/>
      <path id="Path_14" data-name="Path 14" d="M570.521,351.724s-2.537-14.3-2.342-26.737a102.792,102.792,0,0,1,3.122-23.028l35.324,25.176Z" transform="translate(-166.231 -195.926)" fill="#fff"/>
    </g>
  </g>
</svg>
