<svg id="Layer_2" data-name="Layer 2" xmlns="http://www.w3.org/2000/svg" width="24" height="24" viewBox="0 0 24 24">
  <g id="external-link">
    <rect id="Rectangle_18" data-name="Rectangle 18" width="24" height="24" opacity="0"/>
    <path id="Path_26" data-name="Path 26" d="M4,11a1,1,0,0,1,1,1v6a1,1,0,0,0,1,1H18a1,1,0,0,0,1-1V6a1,1,0,0,0-1-1H12a1,1,0,0,1,0-2h6a3,3,0,0,1,3,3V18a3,3,0,0,1-3,3H6a3,3,0,0,1-3-3V12A1,1,0,0,1,4,11Z"/>
    <path id="Path_27" data-name="Path 27" d="M15.994,5h-1.58l6.29,6.28a1,1,0,1,1-1.42,1.42l-6.29-6.28V8a1,1,0,0,1-2,0V4a1,1,0,0,1,1-1h4a1,1,0,0,1,0,2Z" transform="translate(-7.994)"/>
  </g>
</svg>
