<svg xmlns="http://www.w3.org/2000/svg" width="800.003" height="800.003" viewBox="0 0 800.003 800.003">
  <path id="Path_40" data-name="Path 40" d="M909.6,854.5,649.9,594.8A297.31,297.31,0,0,0,712,412c0-80.2-31.3-155.4-87.9-212.1A299.955,299.955,0,1,0,199.9,624.1,300,300,0,0,0,594.7,650L854.4,909.6a8.2,8.2,0,0,0,11.6,0l43.6-43.5a8.2,8.2,0,0,0,0-11.6ZM570.4,570.4A224.039,224.039,0,1,1,636,412,222.792,222.792,0,0,1,570.4,570.4Z" transform="translate(-112 -112)" stroke="#000" stroke-width="0"/>
</svg>
