<svg id="_15127123631579517835" data-name="15127123631579517835" xmlns="http://www.w3.org/2000/svg" width="512" height="512" viewBox="0 0 512 512">
  <rect id="Rectangle_5" data-name="Rectangle 5" width="512" height="512" rx="76.8" fill="#013220"/>
  <path id="Path_21" data-name="Path 21" d="M346,392l-21-25c41-11,57-39,57-39-52,49-194,51-249,0,0,0,14,26,56,39l-23,25c-70-1-97-48-97-48,0-104,46-187,46-187,47-33,90-33,90-33l3,4c-58,16-83,42-83,42,68-46,208-42,263,0,1-1-33-28-86-42l5-4s43,0,90,33c0,0,46,83,46,187C443,344,416,391,346,392Z" fill="#fff"/>
  <ellipse id="Ellipse_2" data-name="Ellipse 2" cx="33" cy="35" rx="33" ry="35" transform="translate(163 244)" fill="#013220"/>
  <ellipse id="Ellipse_3" data-name="Ellipse 3" cx="33" cy="35" rx="33" ry="35" transform="translate(279 244)" fill="#013220"/>
</svg>
