<svg xmlns="http://www.w3.org/2000/svg" width="612.187" height="486" viewBox="0 0 612.187 486">
  <path id="_14020192201615200900" data-name="14020192201615200900" d="M74.6,103.149a23.683,23.683,0,0,0-7.729-20L9.729,14.28V4H187.212L324.393,304.865,444.994,4H614.187V14.28L565.313,61.138a14.322,14.322,0,0,0-5.433,13.723v344.3a14.3,14.3,0,0,0,5.433,13.7l47.726,46.86V490H372.961V479.721l49.459-48.008c4.845-4.845,4.845-6.275,4.845-13.7V139.727L289.8,488.877H271.234l-160.06-349.15V373.736a32.285,32.285,0,0,0,8.851,26.832l64.305,78v10.3H2v-10.3l64.305-78a31.085,31.085,0,0,0,8.29-26.832V103.149Z" transform="translate(-2 -4)" fill="#013220" fill-rule="evenodd"/>
</svg>
