<svg xmlns="http://www.w3.org/2000/svg" width="487.477" height="389.924" viewBox="0 0 487.477 389.924">
  <g id="Page-1" transform="translate(0 -0.001)">
    <g id="Dribbble-Light-Preview" transform="translate(0 0.002)">
      <g id="icons">
        <path id="twitter-_154_" data-name="twitter-[#154]" d="M157.311,7750.922c183.949,0,284.565-150.141,284.565-280.047,0-4.391,0-8.531-.292-12.922a201.244,201.244,0,0,0,49.893-50.937,203.07,203.07,0,0,1-57.425,15.594,99.549,99.549,0,0,0,43.97-54.594,197.922,197.922,0,0,1-63.518,23.891c-37.877-39.484-101.225-41.437-141.514-4.141a97.536,97.536,0,0,0-28.932,94.078c-80.409-4.141-155.334-41.437-206.13-102.859-26.543,44.844-12.967,102.375,30.979,131.375A101.568,101.568,0,0,1,23.5,7498.172v1.219c.024,46.8,33.587,87.016,80.239,96.531a101.02,101.02,0,0,1-45.14,1.453c13.089,40.219,50.649,67.766,93.425,68.484a200.49,200.49,0,0,1-124.209,42.172c-7.946,0-15.892-.484-23.813-1.219a288.189,288.189,0,0,0,153.311,44.109" transform="translate(-4 -7360.998)" fill="#013220" fill-rule="evenodd"/>
      </g>
    </g>
  </g>
</svg>
