<svg xmlns="http://www.w3.org/2000/svg" width="615.038" height="430.694" viewBox="0 0 615.038 430.694">
  <g id="Page-1" transform="translate(-0.001 0.002)">
    <g id="Dribbble-Light-Preview" transform="translate(0 -0.002)">
      <g id="icons" transform="translate(0)">
        <path id="youtube-_168_" data-name="youtube-[#168]" d="M489.644,7576.969V7404.156c61.289,28.906,108.74,56.891,164.832,86.719-46.282,25.828-103.543,54.438-164.832,86.094m341.443-258.609c-10.579-13.844-28.569-24.609-47.759-28.3-56.369-10.766-407.991-10.766-464.329,0a81.242,81.242,0,0,0-40.839,20.609c-49.542,46.125-34.012,292.766-22.08,332.734,5.043,17.219,11.532,29.844,19.712,38.141,10.518,10.75,24.94,18.141,41.516,21.516,46.405,9.531,285.5,15.078,465.037,1.547a81.781,81.781,0,0,0,42.745-22.141c45.821-45.828,42.684-306.3,6-364.109" transform="translate(-244 -7281.988)" fill="#013220" fill-rule="evenodd"/>
      </g>
    </g>
  </g>
</svg>
