<svg xmlns="http://www.w3.org/2000/svg" width="200.107" height="176.896" viewBox="0 0 200.107 176.896">
  <g id="Group_27" data-name="Group 27" transform="translate(-76.025 -120.534)">
    <path id="Path_43" data-name="Path 43" d="M274.807,204.452q-12.1-25.495-28.8-41.584l-11.677,11.677c9.522,9.1,17.816,21,24.987,35.829-19.094,39.519-46.2,58.291-83.237,58.291a88.826,88.826,0,0,1-30.722-5.136L132.7,276.18q19.507,9.008,43.374,9.008,66.163,0,98.728-68.917a13.836,13.836,0,0,0,0-11.819Zm-14.589-73.585-9.783-9.795a1.836,1.836,0,0,0-2.6,0l-25.1,25.088q-20.758-10.6-46.658-10.6-66.163,0-98.728,68.917a13.838,13.838,0,0,0,0,11.819q13.01,27.4,31.326,43.927L84.392,284.5a1.836,1.836,0,0,0,0,2.6l9.8,9.8a1.836,1.836,0,0,0,2.6,0L260.218,133.465a1.836,1.836,0,0,0,0-2.6ZM92.842,210.373c19.117-39.519,46.22-58.291,83.237-58.291A86.881,86.881,0,0,1,210.3,158.6L194.168,174.73a40.391,40.391,0,0,0-54.649,54.649l-19.144,19.144C109.778,239.172,100.644,226.5,92.842,210.373Zm56.616,0a25.729,25.729,0,0,1,33.552-24.485l-32.333,32.333A25.7,25.7,0,0,1,149.458,210.373Z" stroke="#000" stroke-width="0"/>
    <path id="Path_44" data-name="Path 44" d="M459.4,489.108c-.794,0-1.577-.037-2.352-.108L444.93,501.122a40.412,40.412,0,0,0,52.192-52.192L485,461.052c.071.776.108,1.558.108,2.352a25.69,25.69,0,0,1-25.7,25.7Z" transform="translate(-284.243 -253.031)" stroke="#000" stroke-width="0"/>
  </g>
</svg>
