<svg xmlns="http://www.w3.org/2000/svg" width="110.152" height="82.366" viewBox="0 0 110.152 82.366">
  <path id="Path_45" data-name="Path 45" d="M185.448,223.924C173.472,198.7,155.369,186,131.1,186s-42.37,12.7-54.346,37.936a7.618,7.618,0,0,0,0,6.506c11.976,25.228,30.079,37.924,54.346,37.924s42.37-12.7,54.346-37.936A7.617,7.617,0,0,0,185.448,223.924ZM131.1,259.27c-20.377,0-35.3-10.334-45.819-32.087C95.805,205.429,110.725,195.1,131.1,195.1s35.3,10.334,45.819,32.087C166.41,248.937,151.491,259.27,131.1,259.27Zm-.505-54.321a22.234,22.234,0,1,0,22.234,22.234A22.234,22.234,0,0,0,130.6,204.949Zm0,36.383a14.149,14.149,0,1,1,14.149-14.149A14.142,14.142,0,0,1,130.6,241.332Z" transform="translate(-76.025 -186)" stroke="#000" stroke-width="0"/>
</svg>
