<svg xmlns="http://www.w3.org/2000/svg" width="286.63" height="260.642" viewBox="0 0 286.63 260.642">
  <g id="_19587296701535797975" data-name="19587296701535797975" transform="translate(-2.092 -5.217)">
    <path id="Path_26" data-name="Path 26" d="M15.25,168.931a4.347,4.347,0,0,0,0,8.693H238.875a4.347,4.347,0,0,0,0-8.693H214.617V40.635h24.258a4.347,4.347,0,0,0,0-8.693H40.153a3.89,3.89,0,0,0-2.429,0H15.25a4.347,4.347,0,1,0,0,8.693H34.61v128.3Zm86.9,0V40.635h48.031v128.3Zm103.773,0H158.875V40.635h47.049ZM43.267,40.635h50.19v128.3H43.267Z" transform="translate(17.547 52.833)"/>
    <path id="Path_27" data-name="Path 27" d="M282.779,89.44H6.439a4.347,4.347,0,0,0,0,8.693h276.34a4.347,4.347,0,1,0,0-8.693Z" transform="translate(0 167.725)"/>
    <path id="Path_28" data-name="Path 28" d="M286.073,84.739,147.9,5.789a4.351,4.351,0,0,0-4.3-.006L4.522,84.733A4.348,4.348,0,0,0,8.815,92.3l136.924-77.73L281.763,92.286a4.346,4.346,0,1,0,4.311-7.547Z" transform="translate(0.457 0)"/>
  </g>
</svg>
