<svg xmlns="http://www.w3.org/2000/svg" width="708" height="708" viewBox="0 0 708 708">
  <g id="Group_25" data-name="Group 25" transform="translate(-48 -48)">
    <path id="Path_37" data-name="Path 37" d="M402,119.481a282.4,282.4,0,1,1-199.806,82.713A281.348,281.348,0,0,1,402,119.481M402,48C206.449,48,48,206.449,48,402S206.449,756,402,756,756,597.551,756,402,597.551,48,402,48Z" fill="#fff" stroke="#000" stroke-width="0"/>
    <path id="Path_38" data-name="Path 38" d="M278.66,485H350.14v71.481H278.66Zm71.14-35.74H279C279,335.231,385.2,343.4,385.2,272.6c0-38.974-31.826-70.97-70.8-70.97s-70.8,33.188-70.8,70.63H172.8a141.6,141.6,0,0,1,283.2.17C456,360.93,349.8,370.971,349.8,449.26Z" transform="translate(87.6 58.26)" fill="#fff" stroke="#000" stroke-width="0"/>
  </g>
</svg>
