<svg xmlns="http://www.w3.org/2000/svg" width="62" height="61" viewBox="0 0 62 61">
  <g id="Group_37" data-name="Group 37" transform="translate(-1 -1)">
    <line id="Line_9" data-name="Line 9" y1="10" transform="translate(32 25)" fill="none" stroke="#013220" stroke-width="2"/>
    <path id="Path_63" data-name="Path 63" d="M22,4H15V9c0,6,3.2,9,7.2,9" fill="none" stroke="#013220" stroke-width="2"/>
    <path id="Path_64" data-name="Path 64" d="M42,4h7V9c0,6-3.2,9-7.2,9" fill="none" stroke="#013220" stroke-width="2"/>
    <path id="Path_65" data-name="Path 65" d="M22,2H42V15A10,10,0,0,1,32,25h0A10,10,0,0,1,22,15Z" fill="none" stroke="#013220" stroke-linecap="square" stroke-width="2"/>
    <line id="Line_10" data-name="Line 10" x2="14" transform="translate(25 35)" fill="none" stroke="#013220" stroke-linecap="square" stroke-width="2"/>
    <path id="Path_66" data-name="Path 66" d="M14,62V58L3.444,45.685A6,6,0,0,1,2,41.78V23.5A3.5,3.5,0,0,1,5.5,20h0A3.5,3.5,0,0,1,9,23.5V35.13" fill="none" stroke="#013220" stroke-miterlimit="10" stroke-width="2"/>
    <path id="Path_67" data-name="Path 67" d="M26,62V48.485a6,6,0,0,0-1.757-4.242L14.5,34.5a3.535,3.535,0,0,0-5,0h0a3.535,3.535,0,0,0,0,5L17,47" fill="none" stroke="#013220" stroke-miterlimit="10" stroke-width="2"/>
    <path id="Path_68" data-name="Path 68" d="M50,62V58L60.556,45.685A6,6,0,0,0,62,41.78V23.5A3.5,3.5,0,0,0,58.5,20h0A3.5,3.5,0,0,0,55,23.5V35.13" fill="none" stroke="#013220" stroke-miterlimit="10" stroke-width="2"/>
    <path id="Path_69" data-name="Path 69" d="M38,62V48.485a6,6,0,0,1,1.757-4.242L49.5,34.5a3.535,3.535,0,0,1,5,0h0a3.535,3.535,0,0,1,0,5L47,47" fill="none" stroke="#013220" stroke-miterlimit="10" stroke-width="2"/>
  </g>
</svg>
