<svg xmlns="http://www.w3.org/2000/svg" width="116.118" height="131.952" viewBox="0 0 116.118 131.952">
  <path id="Path_46" data-name="Path 46" d="M270.84,170.059H259.624V133.112A21.111,21.111,0,0,0,238.512,112H197.606a21.111,21.111,0,0,0-21.112,21.112v36.947H165.278A5.272,5.272,0,0,0,160,175.337v63.337a5.272,5.272,0,0,0,5.278,5.278H270.84a5.272,5.272,0,0,0,5.278-5.278V175.337A5.272,5.272,0,0,0,270.84,170.059Zm-82.47-36.947a9.243,9.243,0,0,1,9.237-9.237h40.905a9.243,9.243,0,0,1,9.237,9.237v36.947H188.37Zm75.872,98.964H171.876V181.935h92.366Zm-50.8-22.927v8.742a1.323,1.323,0,0,0,1.32,1.32h6.6a1.323,1.323,0,0,0,1.32-1.32V209.15a7.919,7.919,0,1,0-9.237,0Z" transform="translate(-160 -112)" stroke="#000" stroke-width="0"/>
</svg>
