<svg id="Group_4" data-name="Group 4" xmlns="http://www.w3.org/2000/svg" width="344.564" height="344.564" viewBox="0 0 344.564 344.564">
  <path id="Path_29" data-name="Path 29" d="M0,0H344.564V344.564H0Z" fill="none" stroke="#000" stroke-width="0"/>
  <path id="Path_30" data-name="Path 30" d="M145.569,2A143.569,143.569,0,1,0,289.137,145.569,143.621,143.621,0,0,0,145.569,2ZM74.789,235.73c6.173-12.921,43.788-25.555,70.779-25.555s64.749,12.634,70.779,25.555a113.784,113.784,0,0,1-141.559,0Zm162.089-20.817c-20.53-24.981-70.349-33.451-91.31-33.451s-70.779,8.471-91.31,33.451a114.855,114.855,0,1,1,182.619,0ZM145.569,59.427a50.249,50.249,0,1,0,50.249,50.249A50.121,50.121,0,0,0,145.569,59.427Zm0,71.784A21.535,21.535,0,1,1,167.1,109.676,21.506,21.506,0,0,1,145.569,131.212Z" transform="translate(26.714 26.714)" stroke="#000" stroke-width="0"/>
</svg>
